#!OML:ASF I:\salsa\salsa 7_09\Patient 1\Session 1\dancermale.ASF
:FULLY-SPECIFIED
:DEGREES
1739
root 10.9061 16.9012 6.27637 185.611 313.052 -896.21
lowerback 0.231178 -0.624296 4.03325
upperback -2.30947 -0.799798 0.359662
thorax -2.55419 -0.496702 -1.86906
lowerneck -6.29552 8.26267 5.24665
upperneck 14.0007 11.2621 -6.18566
head 5.92003 5.2395 -1.96562
rclavicle 1.58413e-013 4.47266e-015
rhumerus 7.38389 23.4467 -83.6107
rradius 56.2919
rwrist -37.741
rhand 53.4671 -4.49616
rfingers 7.12502
rthumb 72.0368 7.67813
lclavicle 1.58413e-013 4.47266e-015
lhumerus 6.58816 12.1629 71.805
lradius 74.3548
lwrist 64.1025
lhand -15.574 53.6505
lfingers 7.12502
lthumb 10.6111 83.3626
rfemur -10.1848 -5.38723 19.2527
rtibia 29.8891
rfoot -26.7889 -25.4512
rtoes 0.0884574
lfemur -30.5921 5.38947 -4.15758
ltibia 17.2059
lfoot 7.90074 13.1029
ltoes 2.96229
1740
root 10.9832 16.906 6.26855 185.49 312.172 -896.075
lowerback 0.0608934 -0.263031 4.53323
upperback -2.1072 -0.32272 0.187914
thorax -2.22549 -0.258461 -2.3401
lowerneck -6.76044 7.58808 4.74662
upperneck 14.1299 10.3375 -5.74666
head 5.93392 4.78813 -1.81222
rclavicle -1.74496e-014 -7.60351e-015
rhumerus 8.06167 25.5542 -82.1006
rradius 56.5371
rwrist -40.4656
rhand 52.8233 -4.06565
rfingers 7.12502
rthumb 71.6801 6.47299
lclavicle -1.74496e-014 -7.60351e-015
lhumerus 5.52403 11.8507 70.4945
lradius 77.5481
lwrist 63.7922
lhand -14.7936 53.2685
lfingers 7.12502
lthumb 11.3639 82.9406
rfemur -10.1961 -5.89193 19.6423
rtibia 29.7416
rfoot -26.3197 -26.0269
rtoes -1.57349
lfemur -30.6056 4.61213 -3.92364
ltibia 16.2167
lfoot 9.0212 13.2561
ltoes 3.57514
1741
root 11.0645 16.9129 6.25174 185.432 311.496 -895.929
lowerback -0.102164 0.166742 4.81038
upperback -2.02454 0.242744 0.135338
thorax -2.00613 0.0252241 -2.56028
lowerneck -6.86839 6.91353 4.11381
upperneck 14.0764 9.43249 -5.31673
head 5.83342 4.34829 -1.65336
rclavicle 4.32357e-015 9.29318e-015
rhumerus 8.6578 27.3306 -80.7171
rradius 56.5211
rwrist -41.9401
rhand 53.5446 -2.47196
rfingers 7.12502
rthumb 72.0787 9.90367
lclavicle 4.32357e-015 9.29318e-015
lhumerus 4.23147 11.7529 69.2914
lradius 80.9199
lwrist 63.5069
lhand -14.9726 53.3936
lfingers 7.12502
lthumb 11.1912 83.0751
rfemur -10.3044 -5.98052 20.1024
rtibia 29.6284
rfoot -26.3288 -26.3477
rtoes -0.94929
lfemur -30.6449 4.22514 -3.68048
ltibia 15.294
lfoot 10.291 13.2582
ltoes 3.85807
1742
root 11.1401 16.9201 6.2352 185.402 310.613 -895.698
lowerback -0.403604 0.663836 5.06702
upperback -1.97955 0.887884 0.13966
thorax -1.73572 0.350087 -2.70479
lowerneck -6.90197 6.11833 3.57135
upperneck 14.0376 8.36382 -4.94038
head 5.73384 3.83012 -1.537
rclavicle -4.54697e-014 1.49958e-014
rhumerus 9.24652 28.5433 -79.2234
rradius 56.4208
rwrist -43.2226
rhand 55.1764 -1.94337
rfingers 7.12502
rthumb 72.905 14.8958
lclavicle -4.54697e-014 1.49958e-014
lhumerus 2.99244 11.3636 68.4034
lradius 84.7063
lwrist 64.2595
lhand -17.7833 53.5886
lfingers 7.12502
lthumb 8.47947 83.3983
rfemur -10.4234 -6.13348 20.6158
rtibia 29.3861
rfoot -26.4756 -26.4692
rtoes 0.92181
lfemur -30.9308 3.7731 -3.38767
ltibia 14.4694
lfoot 11.5205 13.2553
ltoes 4.5518
1743
root 11.2176 16.9339 6.21314 185.127 309.9 -895.458
lowerback -0.49129 1.30675 5.3096
upperback -1.77913 1.73807 0.112033
thorax -1.40119 0.78498 -2.86941
lowerneck -7.22633 5.23426 2.92028
upperneck 14.1241 7.17363 -4.42646
head 5.71971 3.25119 -1.35625
rclavicle 3.75268e-014 -9.86469e-015
rhumerus 9.94405 29.424 -77.5595
rradius 56.5305
rwrist -44.782
rhand 56.5395 -2.30992
rfingers 7.12502
rthumb 73.5058 18.5851
lclavicle 3.75268e-014 -9.86469e-015
lhumerus 2.44107 11.0845 67.8094
lradius 88.0521
lwrist 64.0261
lhand -19.4176 53.7553
lfingers 7.12502
lthumb 6.90207 83.6228
rfemur -10.2011 -6.067 21.127
rtibia 28.9094
rfoot -26.3612 -26.6892
rtoes 2.27474
lfemur -30.865 3.45425 -3.02019
ltibia 13.543
lfoot 12.8818 13.2106
ltoes 4.72837
1744
root 11.2846 16.9547 6.19907 184.744 308.885 -895.083
lowerback -0.636682 1.85753 5.90297
upperback -1.47655 2.45756 0.0323553
thorax -0.917648 1.15859 -3.2712
lowerneck -7.81006 4.35188 2.21451
upperneck 14.2564 5.98679 -3.81714
head 5.77456 2.67646 -1.12865
rclavicle -1.18215e-014 -1.82882e-014
rhumerus 11.0518 31.5514 -74.4931
rradius 57.1958
rwrist -47.1058
rhand 56.0196 -0.111961
rfingers 7.12502
rthumb 73.2869 19.2013
lclavicle -1.18215e-014 -1.82882e-014
lhumerus 2.29919 11.1734 67.1336
lradius 91.0926
lwrist 63.144
lhand -19.1546 53.8883
lfingers 7.12502
lthumb 7.15595 83.7473
rfemur -9.88095 -6.32158 21.6732
rtibia 28.2868
rfoot -26.038 -26.9966
rtoes 3.14633
lfemur -31.0325 3.09782 -2.73168
ltibia 12.8872
lfoot 14.4105 12.7591
ltoes 4.21105
1745
root 11.3468 16.9676 6.18237 184.925 307.74 -895.026
lowerback -1.08548 2.24969 6.55608
upperback -1.20246 2.94297 -0.507886
thorax -0.275917 1.42464 -4.16336
lowerneck -8.61285 3.63126 2.65552
upperneck 14.2632 4.91286 -3.51319
head 5.8834 2.20217 -1.17254
rclavicle 1.84186e-014 -9.59136e-015
rhumerus 12.3346 32.8473 -72.7258
rradius 57.2938
rwrist -48.0457
rhand 56.4385 2.70848
rfingers 7.12502
rthumb 73.4642 23.2927
lclavicle 1.84186e-014 -9.59136e-015
lhumerus 2.21249 11.4347 65.2769
lradius 94.2412
lwrist 63.0874
lhand -19.5201 54.0143
lfingers 7.12502
lthumb 6.80314 83.885
rfemur -9.86269 -6.62962 22.0268
rtibia 27.6687
rfoot -25.8365 -27.3983
rtoes 3.92936
lfemur -31.7163 2.9464 -2.76086
ltibia 12.5593
lfoot 15.6205 12.291
ltoes 6.34017
1746
root 11.4036 16.9838 6.16413 185.13 306.644 -894.974
lowerback -1.62382 2.71086 6.74878
upperback -0.922664 3.51043 -0.690747
thorax 0.405793 1.73955 -4.41087
lowerneck -9.29204 2.8801 2.87787
upperneck 14.1756 3.87147 -3.57015
head 5.94404 1.70634 -1.30008
rclavicle -3.52905e-014 -7.7526e-015
rhumerus 13.6182 34.1189 -70.2691
rradius 57.5043
rwrist -49.1866
rhand 57.0856 4.44164
rfingers 7.12502
rthumb 73.7214 27.043
lclavicle -3.52905e-014 -7.7526e-015
lhumerus 2.33587 11.9346 63.9771
lradius 96.8309
lwrist 62.4061
lhand -19.599 53.709
lfingers 7.12502
lthumb 6.72695 83.5821
rfemur -9.82761 -6.79834 22.3869
rtibia 26.9841
rfoot -25.6593 -27.9107
rtoes 4.64572
lfemur -32.4805 3.03463 -2.86278
ltibia 12.4464
lfoot 16.5576 11.7629
ltoes 9.91173
1747
root 11.4524 17.004 6.14594 185.223 305.591 -894.996
lowerback -1.88131 3.49756 6.4499
upperback -0.96988 4.53482 -0.161724
thorax 0.565317 2.25149 -3.64374
lowerneck -8.48847 1.6947 1.09509
upperneck 13.7436 2.47372 -3.2887
head 5.59774 0.963845 -1.036
rclavicle 5.46658e-016 -3.97569e-016
rhumerus 13.8346 35.5185 -66.4592
rradius 58.0026
rwrist -50.5641
rhand 57.3016 5.87636
rfingers 7.12502
rthumb 73.8025 29.165
lclavicle 5.46658e-016 -3.97569e-016
lhumerus 1.87407 11.7423 64.3326
lradius 99.0256
lwrist 60.8736
lhand -19.0813 52.8389
lfingers 7.12502
lthumb 7.22665 82.6955
rfemur -9.53187 -6.95108 22.6279
rtibia 26.1801
rfoot -25.425 -28.5013
rtoes 5.42519
lfemur -33.1741 3.50918 -3.23537
ltibia 12.7079
lfoot 17.2106 10.6029
ltoes 11.8496
